<svg width="1024" height="90" viewBox="0 0 1024 90" fill="none" xmlns="http://www.w3.org/2000/svg">
<mask id="mask0_86_493" style="mask-type:alpha" maskUnits="userSpaceOnUse" x="-1" y="0" width="1026" height="91">
<mask id="path-1-outside-1_86_493" maskUnits="userSpaceOnUse" x="-1" y="0.557129" width="1026" height="90" fill="black">
<rect fill="white" x="-1" y="0.557129" width="1026" height="90"/>
<path d="M81.2251 2.72823V88.386H59.9562L26.036 43.3822H25.486V88.386H0V2.72823H21.6356L55.0057 47.5647H55.7391V2.72823H81.2251Z"/>
<path d="M184.223 45.5571C184.223 55.0932 182.191 63.1376 178.127 69.6902C174.063 76.2149 168.577 81.1642 161.671 84.5381C154.765 87.8841 147.064 89.5571 138.569 89.5571C130.012 89.5571 122.281 87.8702 115.374 84.4963C108.499 81.0945 103.029 76.1313 98.9644 69.6065C94.9307 63.0539 92.9138 55.0375 92.9138 45.5571C92.9138 36.021 94.9307 27.9906 98.9644 21.4659C103.029 14.9133 108.499 9.96397 115.374 6.61796C122.281 3.24407 130.012 1.55713 138.569 1.55713C147.064 1.55713 154.765 3.24407 161.671 6.61796C168.577 9.96397 174.063 14.9133 178.127 21.4659C182.191 27.9906 184.223 36.021 184.223 45.5571ZM158.004 45.5571C158.004 40.4266 157.255 36.1047 155.758 32.5913C154.291 29.0502 152.106 26.3733 149.203 24.5609C146.33 22.7206 142.786 21.8005 138.569 21.8005C134.351 21.8005 130.791 22.7206 127.888 24.5609C125.016 26.3733 122.831 29.0502 121.333 32.5913C119.867 36.1047 119.133 40.4266 119.133 45.5571C119.133 50.6877 119.867 55.0235 121.333 58.5647C122.831 62.078 125.016 64.7548 127.888 66.5951C130.791 68.4076 134.351 69.3138 138.569 69.3138C142.786 69.3138 146.33 68.4076 149.203 66.5951C152.106 64.7548 154.291 62.078 155.758 58.5647C157.255 55.0235 158.004 50.6877 158.004 45.5571Z"/>
<path d="M283.658 34.8499H257.805C257.622 32.8981 257.133 31.1275 256.338 29.5381C255.574 27.9488 254.505 26.5825 253.129 25.4393C251.785 24.2682 250.15 23.3759 248.225 22.7625C246.3 22.1211 244.115 21.8005 241.67 21.8005C237.392 21.8005 233.77 22.7485 230.806 24.6446C227.873 26.5406 225.642 29.2593 224.114 32.8005C222.617 36.3417 221.868 40.5939 221.868 45.5571C221.868 50.7992 222.632 55.1908 224.16 58.732C225.718 62.2453 227.964 64.8943 230.898 66.6788C233.832 68.4354 237.361 69.3138 241.487 69.3138C243.84 69.3138 245.948 69.0489 247.812 68.5191C249.676 67.9614 251.296 67.1668 252.671 66.1351C254.046 65.1034 255.162 63.8626 256.017 62.4126C256.903 60.9348 257.499 59.2758 257.805 57.4355L283.658 57.6027C283.352 61.2276 282.237 64.9221 280.311 68.6864C278.386 72.4228 275.651 75.8803 272.106 79.059C268.592 82.2098 264.237 84.7472 259.043 86.6712C253.848 88.5951 247.812 89.5571 240.936 89.5571C232.319 89.5571 224.588 87.8702 217.742 84.4963C210.928 81.1224 205.534 76.1591 201.562 69.6065C197.619 63.0539 195.648 55.0375 195.648 45.5571C195.648 36.021 197.665 27.9906 201.699 21.4659C205.733 14.9133 211.172 9.96397 218.017 6.61796C224.863 3.24407 232.502 1.55713 240.936 1.55713C246.865 1.55713 252.32 2.29604 257.301 3.77386C262.282 5.25168 266.652 7.41264 270.41 10.2567C274.169 13.073 277.194 16.5445 279.486 20.6712C281.778 24.7979 283.169 29.5242 283.658 34.8499Z"/>
<path d="M292.653 21.4659V2.72823H374.245V21.4659H346.009V88.386H320.89V21.4659H292.653Z"/>
<path d="M409.323 2.72823V88.386H383.837V2.72823H409.323Z"/>
<path d="M472.006 29.4963C471.762 26.708 470.616 24.533 468.568 22.9716C466.552 21.4101 463.48 20.6294 459.355 20.6294C456.727 20.6294 454.573 20.9221 452.892 21.5077C451.242 22.0654 450.019 22.8322 449.225 23.8081C448.43 24.784 448.018 25.8993 447.987 27.1541C447.926 28.1858 448.125 29.1199 448.583 29.9564C449.072 30.765 449.836 31.5039 450.875 32.1731C451.914 32.8144 453.243 33.4 454.863 33.9297C456.482 34.4595 458.408 34.9336 460.638 35.3518L468.339 36.8575C473.534 37.8613 477.981 39.1858 481.678 40.8309C485.376 42.476 488.401 44.4139 490.754 46.6446C493.107 48.8474 494.834 51.329 495.934 54.0894C497.064 56.8499 497.645 59.8613 497.676 63.1237C497.645 68.7561 496.102 73.5242 493.046 77.4278C489.99 81.3315 485.62 84.3011 479.936 86.3366C474.283 88.3721 467.484 89.3898 459.538 89.3898C451.379 89.3898 444.259 88.2884 438.178 86.0856C432.127 83.8828 427.421 80.495 424.06 75.9221C420.729 71.3214 419.048 65.438 419.017 58.272H443.22C443.373 60.893 444.091 63.0958 445.374 64.8803C446.658 66.6649 448.461 68.0172 450.783 68.9374C453.136 69.8575 455.932 70.3176 459.172 70.3176C461.891 70.3176 464.168 70.0109 466.001 69.3974C467.835 68.784 469.225 67.9335 470.173 66.8461C471.12 65.7586 471.609 64.5178 471.64 63.1237C471.609 61.8131 471.135 60.6699 470.219 59.694C469.332 58.6902 467.866 57.7979 465.818 57.0172C463.771 56.2086 461.005 55.4557 457.521 54.7586L448.17 52.9183C439.859 51.2732 433.304 48.5267 428.506 44.6788C423.739 40.803 421.37 35.5191 421.401 28.8271C421.37 23.3898 422.96 18.6357 426.168 14.5647C429.407 10.4659 433.884 7.27322 439.599 4.98679C445.344 2.70035 451.929 1.55713 459.355 1.55713C466.934 1.55713 473.488 2.71429 479.019 5.02861C484.551 7.34293 488.814 10.6053 491.808 14.8157C494.834 18.9982 496.362 23.8917 496.392 29.4963H472.006Z"/>
<path d="M583.691 29.4963C583.446 26.708 582.3 24.533 580.253 22.9716C578.236 21.4101 575.165 20.6294 571.039 20.6294C568.411 20.6294 566.257 20.9221 564.576 21.5077C562.926 22.0654 561.704 22.8322 560.909 23.8081C560.115 24.784 559.702 25.8993 559.672 27.1541C559.611 28.1858 559.809 29.1199 560.268 29.9564C560.756 30.765 561.52 31.5039 562.559 32.1731C563.598 32.8144 564.928 33.4 566.547 33.9297C568.167 34.4595 570.092 34.9336 572.323 35.3518L580.024 36.8575C585.219 37.8613 589.665 39.1858 593.363 40.8309C597.06 42.476 600.086 44.4139 602.439 46.6446C604.792 48.8474 606.518 51.329 607.618 54.0894C608.749 56.8499 609.33 59.8613 609.36 63.1237C609.33 68.7561 607.786 73.5242 604.73 77.4278C601.675 81.3315 597.305 84.3011 591.621 86.3366C585.967 88.3721 579.168 89.3898 571.223 89.3898C563.064 89.3898 555.943 88.2884 549.862 86.0856C543.812 83.8828 539.106 80.495 535.744 75.9221C532.413 71.3214 530.732 65.438 530.702 58.272H554.904C555.057 60.893 555.775 63.0958 557.059 64.8803C558.342 66.6649 560.145 68.0172 562.468 68.9374C564.821 69.8575 567.617 70.3176 570.856 70.3176C573.576 70.3176 575.852 70.0109 577.686 69.3974C579.52 68.784 580.91 67.9335 581.857 66.8461C582.805 65.7586 583.294 64.5178 583.324 63.1237C583.294 61.8131 582.82 60.6699 581.903 59.694C581.017 58.6902 579.55 57.7979 577.503 57.0172C575.455 56.2086 572.69 55.4557 569.206 54.7586L559.855 52.9183C551.543 51.2732 544.988 48.5267 540.19 44.6788C535.423 40.803 533.055 35.5191 533.086 28.8271C533.055 23.3898 534.644 18.6357 537.853 14.5647C541.092 10.4659 545.569 7.27322 551.283 4.98679C557.028 2.70035 563.614 1.55713 571.039 1.55713C578.618 1.55713 585.173 2.71429 590.704 5.02861C596.235 7.34293 600.498 10.6053 603.493 14.8157C606.518 18.9982 608.046 23.8917 608.077 29.4963H583.691Z"/>
<path d="M616.488 21.4659V2.72823H698.08V21.4659H669.843V88.386H644.724V21.4659H616.488Z"/>
<path d="M763.227 2.72823H788.713V57.6027C788.713 64.1275 787.002 69.7739 783.579 74.5419C780.187 79.2821 775.451 82.9488 769.369 85.5419C763.288 88.1072 756.229 89.3898 748.192 89.3898C740.094 89.3898 733.005 88.1072 726.923 85.5419C720.842 82.9488 716.106 79.2821 712.714 74.5419C709.352 69.7739 707.671 64.1275 707.671 57.6027V2.72823H733.157V55.5951C733.157 58.2441 733.799 60.6142 735.083 62.7054C736.366 64.7688 738.138 66.386 740.4 67.5571C742.692 68.7282 745.289 69.3138 748.192 69.3138C751.126 69.3138 753.723 68.7282 755.985 67.5571C758.246 66.386 760.018 64.7688 761.302 62.7054C762.585 60.6142 763.227 58.2441 763.227 55.5951V2.72823Z"/>
<path d="M836.946 88.386H800.826V2.72823H836.58C846.236 2.72823 854.579 4.44306 861.607 7.87272C868.666 11.2745 874.106 16.182 877.925 22.5952C881.776 28.9804 883.701 36.6344 883.701 45.5571C883.701 54.4798 881.791 62.1477 877.971 68.5609C874.151 74.9462 868.743 79.8537 861.745 83.2834C854.747 86.6851 846.481 88.386 836.946 88.386ZM826.312 68.6446H836.03C840.674 68.6446 844.632 67.9614 847.902 66.5951C851.202 65.2289 853.708 62.8727 855.419 59.5267C857.161 56.1807 858.032 51.5242 858.032 45.5571C858.032 39.5901 857.146 34.9336 855.373 31.5875C853.631 28.2415 851.064 25.8854 847.672 24.5191C844.311 23.1528 840.185 22.4697 835.296 22.4697H826.312V68.6446Z"/>
<path d="M920.979 2.72823V88.386H895.493V2.72823H920.979Z"/>
<path d="M1024 45.5571C1024 55.0932 1021.97 63.1376 1017.9 69.6902C1013.84 76.2149 1008.35 81.1642 1001.45 84.5381C994.541 87.8841 986.841 89.5571 978.345 89.5571C969.789 89.5571 962.058 87.8702 955.151 84.4963C948.276 81.0945 942.805 76.1313 938.741 69.6065C934.707 63.0539 932.691 55.0375 932.691 45.5571C932.691 36.021 934.707 27.9906 938.741 21.4659C942.805 14.9133 948.276 9.96397 955.151 6.61796C962.058 3.24407 969.789 1.55713 978.345 1.55713C986.841 1.55713 994.541 3.24407 1001.45 6.61796C1008.35 9.96397 1013.84 14.9133 1017.9 21.4659C1021.97 27.9906 1024 36.021 1024 45.5571ZM997.781 45.5571C997.781 40.4266 997.032 36.1047 995.535 32.5913C994.068 29.0502 991.883 26.3733 988.98 24.5609C986.107 22.7206 982.562 21.8005 978.345 21.8005C974.128 21.8005 970.568 22.7206 967.665 24.5609C964.792 26.3733 962.608 29.0502 961.11 32.5913C959.643 36.1047 958.91 40.4266 958.91 45.5571C958.91 50.6877 959.643 55.0235 961.11 58.5647C962.608 62.078 964.792 64.7548 967.665 66.5951C970.568 68.4076 974.128 69.3138 978.345 69.3138C982.562 69.3138 986.107 68.4076 988.98 66.5951C991.883 64.7548 994.068 62.078 995.535 58.5647C997.032 55.0235 997.781 50.6877 997.781 45.5571Z"/>
</mask>
<path d="M81.2251 2.72823V88.386H59.9562L26.036 43.3822H25.486V88.386H0V2.72823H21.6356L55.0057 47.5647H55.7391V2.72823H81.2251Z" fill="#3D3C3C" style="fill:#3D3C3C;fill:color(display-p3 0.2392 0.2353 0.2353);fill-opacity:1;"/>
<path d="M184.223 45.5571C184.223 55.0932 182.191 63.1376 178.127 69.6902C174.063 76.2149 168.577 81.1642 161.671 84.5381C154.765 87.8841 147.064 89.5571 138.569 89.5571C130.012 89.5571 122.281 87.8702 115.374 84.4963C108.499 81.0945 103.029 76.1313 98.9644 69.6065C94.9307 63.0539 92.9138 55.0375 92.9138 45.5571C92.9138 36.021 94.9307 27.9906 98.9644 21.4659C103.029 14.9133 108.499 9.96397 115.374 6.61796C122.281 3.24407 130.012 1.55713 138.569 1.55713C147.064 1.55713 154.765 3.24407 161.671 6.61796C168.577 9.96397 174.063 14.9133 178.127 21.4659C182.191 27.9906 184.223 36.021 184.223 45.5571ZM158.004 45.5571C158.004 40.4266 157.255 36.1047 155.758 32.5913C154.291 29.0502 152.106 26.3733 149.203 24.5609C146.33 22.7206 142.786 21.8005 138.569 21.8005C134.351 21.8005 130.791 22.7206 127.888 24.5609C125.016 26.3733 122.831 29.0502 121.333 32.5913C119.867 36.1047 119.133 40.4266 119.133 45.5571C119.133 50.6877 119.867 55.0235 121.333 58.5647C122.831 62.078 125.016 64.7548 127.888 66.5951C130.791 68.4076 134.351 69.3138 138.569 69.3138C142.786 69.3138 146.33 68.4076 149.203 66.5951C152.106 64.7548 154.291 62.078 155.758 58.5647C157.255 55.0235 158.004 50.6877 158.004 45.5571Z" fill="#3D3C3C" style="fill:#3D3C3C;fill:color(display-p3 0.2392 0.2353 0.2353);fill-opacity:1;"/>
<path d="M283.658 34.8499H257.805C257.622 32.8981 257.133 31.1275 256.338 29.5381C255.574 27.9488 254.505 26.5825 253.129 25.4393C251.785 24.2682 250.15 23.3759 248.225 22.7625C246.3 22.1211 244.115 21.8005 241.67 21.8005C237.392 21.8005 233.77 22.7485 230.806 24.6446C227.873 26.5406 225.642 29.2593 224.114 32.8005C222.617 36.3417 221.868 40.5939 221.868 45.5571C221.868 50.7992 222.632 55.1908 224.16 58.732C225.718 62.2453 227.964 64.8943 230.898 66.6788C233.832 68.4354 237.361 69.3138 241.487 69.3138C243.84 69.3138 245.948 69.0489 247.812 68.5191C249.676 67.9614 251.296 67.1668 252.671 66.1351C254.046 65.1034 255.162 63.8626 256.017 62.4126C256.903 60.9348 257.499 59.2758 257.805 57.4355L283.658 57.6027C283.352 61.2276 282.237 64.9221 280.311 68.6864C278.386 72.4228 275.651 75.8803 272.106 79.059C268.592 82.2098 264.237 84.7472 259.043 86.6712C253.848 88.5951 247.812 89.5571 240.936 89.5571C232.319 89.5571 224.588 87.8702 217.742 84.4963C210.928 81.1224 205.534 76.1591 201.562 69.6065C197.619 63.0539 195.648 55.0375 195.648 45.5571C195.648 36.021 197.665 27.9906 201.699 21.4659C205.733 14.9133 211.172 9.96397 218.017 6.61796C224.863 3.24407 232.502 1.55713 240.936 1.55713C246.865 1.55713 252.32 2.29604 257.301 3.77386C262.282 5.25168 266.652 7.41264 270.41 10.2567C274.169 13.073 277.194 16.5445 279.486 20.6712C281.778 24.7979 283.169 29.5242 283.658 34.8499Z" fill="#3D3C3C" style="fill:#3D3C3C;fill:color(display-p3 0.2392 0.2353 0.2353);fill-opacity:1;"/>
<path d="M292.653 21.4659V2.72823H374.245V21.4659H346.009V88.386H320.89V21.4659H292.653Z" fill="#3D3C3C" style="fill:#3D3C3C;fill:color(display-p3 0.2392 0.2353 0.2353);fill-opacity:1;"/>
<path d="M409.323 2.72823V88.386H383.837V2.72823H409.323Z" fill="#3D3C3C" style="fill:#3D3C3C;fill:color(display-p3 0.2392 0.2353 0.2353);fill-opacity:1;"/>
<path d="M472.006 29.4963C471.762 26.708 470.616 24.533 468.568 22.9716C466.552 21.4101 463.48 20.6294 459.355 20.6294C456.727 20.6294 454.573 20.9221 452.892 21.5077C451.242 22.0654 450.019 22.8322 449.225 23.8081C448.43 24.784 448.018 25.8993 447.987 27.1541C447.926 28.1858 448.125 29.1199 448.583 29.9564C449.072 30.765 449.836 31.5039 450.875 32.1731C451.914 32.8144 453.243 33.4 454.863 33.9297C456.482 34.4595 458.408 34.9336 460.638 35.3518L468.339 36.8575C473.534 37.8613 477.981 39.1858 481.678 40.8309C485.376 42.476 488.401 44.4139 490.754 46.6446C493.107 48.8474 494.834 51.329 495.934 54.0894C497.064 56.8499 497.645 59.8613 497.676 63.1237C497.645 68.7561 496.102 73.5242 493.046 77.4278C489.99 81.3315 485.62 84.3011 479.936 86.3366C474.283 88.3721 467.484 89.3898 459.538 89.3898C451.379 89.3898 444.259 88.2884 438.178 86.0856C432.127 83.8828 427.421 80.495 424.06 75.9221C420.729 71.3214 419.048 65.438 419.017 58.272H443.22C443.373 60.893 444.091 63.0958 445.374 64.8803C446.658 66.6649 448.461 68.0172 450.783 68.9374C453.136 69.8575 455.932 70.3176 459.172 70.3176C461.891 70.3176 464.168 70.0109 466.001 69.3974C467.835 68.784 469.225 67.9335 470.173 66.8461C471.12 65.7586 471.609 64.5178 471.64 63.1237C471.609 61.8131 471.135 60.6699 470.219 59.694C469.332 58.6902 467.866 57.7979 465.818 57.0172C463.771 56.2086 461.005 55.4557 457.521 54.7586L448.17 52.9183C439.859 51.2732 433.304 48.5267 428.506 44.6788C423.739 40.803 421.37 35.5191 421.401 28.8271C421.37 23.3898 422.96 18.6357 426.168 14.5647C429.407 10.4659 433.884 7.27322 439.599 4.98679C445.344 2.70035 451.929 1.55713 459.355 1.55713C466.934 1.55713 473.488 2.71429 479.019 5.02861C484.551 7.34293 488.814 10.6053 491.808 14.8157C494.834 18.9982 496.362 23.8917 496.392 29.4963H472.006Z" fill="#3D3C3C" style="fill:#3D3C3C;fill:color(display-p3 0.2392 0.2353 0.2353);fill-opacity:1;"/>
<path d="M583.691 29.4963C583.446 26.708 582.3 24.533 580.253 22.9716C578.236 21.4101 575.165 20.6294 571.039 20.6294C568.411 20.6294 566.257 20.9221 564.576 21.5077C562.926 22.0654 561.704 22.8322 560.909 23.8081C560.115 24.784 559.702 25.8993 559.672 27.1541C559.611 28.1858 559.809 29.1199 560.268 29.9564C560.756 30.765 561.52 31.5039 562.559 32.1731C563.598 32.8144 564.928 33.4 566.547 33.9297C568.167 34.4595 570.092 34.9336 572.323 35.3518L580.024 36.8575C585.219 37.8613 589.665 39.1858 593.363 40.8309C597.06 42.476 600.086 44.4139 602.439 46.6446C604.792 48.8474 606.518 51.329 607.618 54.0894C608.749 56.8499 609.33 59.8613 609.36 63.1237C609.33 68.7561 607.786 73.5242 604.73 77.4278C601.675 81.3315 597.305 84.3011 591.621 86.3366C585.967 88.3721 579.168 89.3898 571.223 89.3898C563.064 89.3898 555.943 88.2884 549.862 86.0856C543.812 83.8828 539.106 80.495 535.744 75.9221C532.413 71.3214 530.732 65.438 530.702 58.272H554.904C555.057 60.893 555.775 63.0958 557.059 64.8803C558.342 66.6649 560.145 68.0172 562.468 68.9374C564.821 69.8575 567.617 70.3176 570.856 70.3176C573.576 70.3176 575.852 70.0109 577.686 69.3974C579.52 68.784 580.91 67.9335 581.857 66.8461C582.805 65.7586 583.294 64.5178 583.324 63.1237C583.294 61.8131 582.82 60.6699 581.903 59.694C581.017 58.6902 579.55 57.7979 577.503 57.0172C575.455 56.2086 572.69 55.4557 569.206 54.7586L559.855 52.9183C551.543 51.2732 544.988 48.5267 540.19 44.6788C535.423 40.803 533.055 35.5191 533.086 28.8271C533.055 23.3898 534.644 18.6357 537.853 14.5647C541.092 10.4659 545.569 7.27322 551.283 4.98679C557.028 2.70035 563.614 1.55713 571.039 1.55713C578.618 1.55713 585.173 2.71429 590.704 5.02861C596.235 7.34293 600.498 10.6053 603.493 14.8157C606.518 18.9982 608.046 23.8917 608.077 29.4963H583.691Z" fill="#3D3C3C" style="fill:#3D3C3C;fill:color(display-p3 0.2392 0.2353 0.2353);fill-opacity:1;"/>
<path d="M616.488 21.4659V2.72823H698.08V21.4659H669.843V88.386H644.724V21.4659H616.488Z" fill="#3D3C3C" style="fill:#3D3C3C;fill:color(display-p3 0.2392 0.2353 0.2353);fill-opacity:1;"/>
<path d="M763.227 2.72823H788.713V57.6027C788.713 64.1275 787.002 69.7739 783.579 74.5419C780.187 79.2821 775.451 82.9488 769.369 85.5419C763.288 88.1072 756.229 89.3898 748.192 89.3898C740.094 89.3898 733.005 88.1072 726.923 85.5419C720.842 82.9488 716.106 79.2821 712.714 74.5419C709.352 69.7739 707.671 64.1275 707.671 57.6027V2.72823H733.157V55.5951C733.157 58.2441 733.799 60.6142 735.083 62.7054C736.366 64.7688 738.138 66.386 740.4 67.5571C742.692 68.7282 745.289 69.3138 748.192 69.3138C751.126 69.3138 753.723 68.7282 755.985 67.5571C758.246 66.386 760.018 64.7688 761.302 62.7054C762.585 60.6142 763.227 58.2441 763.227 55.5951V2.72823Z" fill="#3D3C3C" style="fill:#3D3C3C;fill:color(display-p3 0.2392 0.2353 0.2353);fill-opacity:1;"/>
<path d="M836.946 88.386H800.826V2.72823H836.58C846.236 2.72823 854.579 4.44306 861.607 7.87272C868.666 11.2745 874.106 16.182 877.925 22.5952C881.776 28.9804 883.701 36.6344 883.701 45.5571C883.701 54.4798 881.791 62.1477 877.971 68.5609C874.151 74.9462 868.743 79.8537 861.745 83.2834C854.747 86.6851 846.481 88.386 836.946 88.386ZM826.312 68.6446H836.03C840.674 68.6446 844.632 67.9614 847.902 66.5951C851.202 65.2289 853.708 62.8727 855.419 59.5267C857.161 56.1807 858.032 51.5242 858.032 45.5571C858.032 39.5901 857.146 34.9336 855.373 31.5875C853.631 28.2415 851.064 25.8854 847.672 24.5191C844.311 23.1528 840.185 22.4697 835.296 22.4697H826.312V68.6446Z" fill="#3D3C3C" style="fill:#3D3C3C;fill:color(display-p3 0.2392 0.2353 0.2353);fill-opacity:1;"/>
<path d="M920.979 2.72823V88.386H895.493V2.72823H920.979Z" fill="#3D3C3C" style="fill:#3D3C3C;fill:color(display-p3 0.2392 0.2353 0.2353);fill-opacity:1;"/>
<path d="M1024 45.5571C1024 55.0932 1021.97 63.1376 1017.9 69.6902C1013.84 76.2149 1008.35 81.1642 1001.45 84.5381C994.541 87.8841 986.841 89.5571 978.345 89.5571C969.789 89.5571 962.058 87.8702 955.151 84.4963C948.276 81.0945 942.805 76.1313 938.741 69.6065C934.707 63.0539 932.691 55.0375 932.691 45.5571C932.691 36.021 934.707 27.9906 938.741 21.4659C942.805 14.9133 948.276 9.96397 955.151 6.61796C962.058 3.24407 969.789 1.55713 978.345 1.55713C986.841 1.55713 994.541 3.24407 1001.45 6.61796C1008.35 9.96397 1013.84 14.9133 1017.9 21.4659C1021.97 27.9906 1024 36.021 1024 45.5571ZM997.781 45.5571C997.781 40.4266 997.032 36.1047 995.535 32.5913C994.068 29.0502 991.883 26.3733 988.98 24.5609C986.107 22.7206 982.562 21.8005 978.345 21.8005C974.128 21.8005 970.568 22.7206 967.665 24.5609C964.792 26.3733 962.608 29.0502 961.11 32.5913C959.643 36.1047 958.91 40.4266 958.91 45.5571C958.91 50.6877 959.643 55.0235 961.11 58.5647C962.608 62.078 964.792 64.7548 967.665 66.5951C970.568 68.4076 974.128 69.3138 978.345 69.3138C982.562 69.3138 986.107 68.4076 988.98 66.5951C991.883 64.7548 994.068 62.078 995.535 58.5647C997.032 55.0235 997.781 50.6877 997.781 45.5571Z" fill="#3D3C3C" style="fill:#3D3C3C;fill:color(display-p3 0.2392 0.2353 0.2353);fill-opacity:1;"/>
<path d="M81.2251 2.72823V88.386H59.9562L26.036 43.3822H25.486V88.386H0V2.72823H21.6356L55.0057 47.5647H55.7391V2.72823H81.2251Z" stroke="#FC8431" style="stroke:#FC8431;stroke:color(display-p3 0.9882 0.5176 0.1922);stroke-opacity:1;" stroke-width="1.74212" mask="url(#path-1-outside-1_86_493)"/>
<path d="M184.223 45.5571C184.223 55.0932 182.191 63.1376 178.127 69.6902C174.063 76.2149 168.577 81.1642 161.671 84.5381C154.765 87.8841 147.064 89.5571 138.569 89.5571C130.012 89.5571 122.281 87.8702 115.374 84.4963C108.499 81.0945 103.029 76.1313 98.9644 69.6065C94.9307 63.0539 92.9138 55.0375 92.9138 45.5571C92.9138 36.021 94.9307 27.9906 98.9644 21.4659C103.029 14.9133 108.499 9.96397 115.374 6.61796C122.281 3.24407 130.012 1.55713 138.569 1.55713C147.064 1.55713 154.765 3.24407 161.671 6.61796C168.577 9.96397 174.063 14.9133 178.127 21.4659C182.191 27.9906 184.223 36.021 184.223 45.5571ZM158.004 45.5571C158.004 40.4266 157.255 36.1047 155.758 32.5913C154.291 29.0502 152.106 26.3733 149.203 24.5609C146.33 22.7206 142.786 21.8005 138.569 21.8005C134.351 21.8005 130.791 22.7206 127.888 24.5609C125.016 26.3733 122.831 29.0502 121.333 32.5913C119.867 36.1047 119.133 40.4266 119.133 45.5571C119.133 50.6877 119.867 55.0235 121.333 58.5647C122.831 62.078 125.016 64.7548 127.888 66.5951C130.791 68.4076 134.351 69.3138 138.569 69.3138C142.786 69.3138 146.33 68.4076 149.203 66.5951C152.106 64.7548 154.291 62.078 155.758 58.5647C157.255 55.0235 158.004 50.6877 158.004 45.5571Z" stroke="#FC8431" style="stroke:#FC8431;stroke:color(display-p3 0.9882 0.5176 0.1922);stroke-opacity:1;" stroke-width="1.74212" mask="url(#path-1-outside-1_86_493)"/>
<path d="M283.658 34.8499H257.805C257.622 32.8981 257.133 31.1275 256.338 29.5381C255.574 27.9488 254.505 26.5825 253.129 25.4393C251.785 24.2682 250.15 23.3759 248.225 22.7625C246.3 22.1211 244.115 21.8005 241.67 21.8005C237.392 21.8005 233.77 22.7485 230.806 24.6446C227.873 26.5406 225.642 29.2593 224.114 32.8005C222.617 36.3417 221.868 40.5939 221.868 45.5571C221.868 50.7992 222.632 55.1908 224.16 58.732C225.718 62.2453 227.964 64.8943 230.898 66.6788C233.832 68.4354 237.361 69.3138 241.487 69.3138C243.84 69.3138 245.948 69.0489 247.812 68.5191C249.676 67.9614 251.296 67.1668 252.671 66.1351C254.046 65.1034 255.162 63.8626 256.017 62.4126C256.903 60.9348 257.499 59.2758 257.805 57.4355L283.658 57.6027C283.352 61.2276 282.237 64.9221 280.311 68.6864C278.386 72.4228 275.651 75.8803 272.106 79.059C268.592 82.2098 264.237 84.7472 259.043 86.6712C253.848 88.5951 247.812 89.5571 240.936 89.5571C232.319 89.5571 224.588 87.8702 217.742 84.4963C210.928 81.1224 205.534 76.1591 201.562 69.6065C197.619 63.0539 195.648 55.0375 195.648 45.5571C195.648 36.021 197.665 27.9906 201.699 21.4659C205.733 14.9133 211.172 9.96397 218.017 6.61796C224.863 3.24407 232.502 1.55713 240.936 1.55713C246.865 1.55713 252.32 2.29604 257.301 3.77386C262.282 5.25168 266.652 7.41264 270.41 10.2567C274.169 13.073 277.194 16.5445 279.486 20.6712C281.778 24.7979 283.169 29.5242 283.658 34.8499Z" stroke="#FC8431" style="stroke:#FC8431;stroke:color(display-p3 0.9882 0.5176 0.1922);stroke-opacity:1;" stroke-width="1.74212" mask="url(#path-1-outside-1_86_493)"/>
<path d="M292.653 21.4659V2.72823H374.245V21.4659H346.009V88.386H320.89V21.4659H292.653Z" stroke="#FC8431" style="stroke:#FC8431;stroke:color(display-p3 0.9882 0.5176 0.1922);stroke-opacity:1;" stroke-width="1.74212" mask="url(#path-1-outside-1_86_493)"/>
<path d="M409.323 2.72823V88.386H383.837V2.72823H409.323Z" stroke="#FC8431" style="stroke:#FC8431;stroke:color(display-p3 0.9882 0.5176 0.1922);stroke-opacity:1;" stroke-width="1.74212" mask="url(#path-1-outside-1_86_493)"/>
<path d="M472.006 29.4963C471.762 26.708 470.616 24.533 468.568 22.9716C466.552 21.4101 463.48 20.6294 459.355 20.6294C456.727 20.6294 454.573 20.9221 452.892 21.5077C451.242 22.0654 450.019 22.8322 449.225 23.8081C448.43 24.784 448.018 25.8993 447.987 27.1541C447.926 28.1858 448.125 29.1199 448.583 29.9564C449.072 30.765 449.836 31.5039 450.875 32.1731C451.914 32.8144 453.243 33.4 454.863 33.9297C456.482 34.4595 458.408 34.9336 460.638 35.3518L468.339 36.8575C473.534 37.8613 477.981 39.1858 481.678 40.8309C485.376 42.476 488.401 44.4139 490.754 46.6446C493.107 48.8474 494.834 51.329 495.934 54.0894C497.064 56.8499 497.645 59.8613 497.676 63.1237C497.645 68.7561 496.102 73.5242 493.046 77.4278C489.99 81.3315 485.62 84.3011 479.936 86.3366C474.283 88.3721 467.484 89.3898 459.538 89.3898C451.379 89.3898 444.259 88.2884 438.178 86.0856C432.127 83.8828 427.421 80.495 424.06 75.9221C420.729 71.3214 419.048 65.438 419.017 58.272H443.22C443.373 60.893 444.091 63.0958 445.374 64.8803C446.658 66.6649 448.461 68.0172 450.783 68.9374C453.136 69.8575 455.932 70.3176 459.172 70.3176C461.891 70.3176 464.168 70.0109 466.001 69.3974C467.835 68.784 469.225 67.9335 470.173 66.8461C471.12 65.7586 471.609 64.5178 471.64 63.1237C471.609 61.8131 471.135 60.6699 470.219 59.694C469.332 58.6902 467.866 57.7979 465.818 57.0172C463.771 56.2086 461.005 55.4557 457.521 54.7586L448.17 52.9183C439.859 51.2732 433.304 48.5267 428.506 44.6788C423.739 40.803 421.37 35.5191 421.401 28.8271C421.37 23.3898 422.96 18.6357 426.168 14.5647C429.407 10.4659 433.884 7.27322 439.599 4.98679C445.344 2.70035 451.929 1.55713 459.355 1.55713C466.934 1.55713 473.488 2.71429 479.019 5.02861C484.551 7.34293 488.814 10.6053 491.808 14.8157C494.834 18.9982 496.362 23.8917 496.392 29.4963H472.006Z" stroke="#FC8431" style="stroke:#FC8431;stroke:color(display-p3 0.9882 0.5176 0.1922);stroke-opacity:1;" stroke-width="1.74212" mask="url(#path-1-outside-1_86_493)"/>
<path d="M583.691 29.4963C583.446 26.708 582.3 24.533 580.253 22.9716C578.236 21.4101 575.165 20.6294 571.039 20.6294C568.411 20.6294 566.257 20.9221 564.576 21.5077C562.926 22.0654 561.704 22.8322 560.909 23.8081C560.115 24.784 559.702 25.8993 559.672 27.1541C559.611 28.1858 559.809 29.1199 560.268 29.9564C560.756 30.765 561.52 31.5039 562.559 32.1731C563.598 32.8144 564.928 33.4 566.547 33.9297C568.167 34.4595 570.092 34.9336 572.323 35.3518L580.024 36.8575C585.219 37.8613 589.665 39.1858 593.363 40.8309C597.06 42.476 600.086 44.4139 602.439 46.6446C604.792 48.8474 606.518 51.329 607.618 54.0894C608.749 56.8499 609.33 59.8613 609.36 63.1237C609.33 68.7561 607.786 73.5242 604.73 77.4278C601.675 81.3315 597.305 84.3011 591.621 86.3366C585.967 88.3721 579.168 89.3898 571.223 89.3898C563.064 89.3898 555.943 88.2884 549.862 86.0856C543.812 83.8828 539.106 80.495 535.744 75.9221C532.413 71.3214 530.732 65.438 530.702 58.272H554.904C555.057 60.893 555.775 63.0958 557.059 64.8803C558.342 66.6649 560.145 68.0172 562.468 68.9374C564.821 69.8575 567.617 70.3176 570.856 70.3176C573.576 70.3176 575.852 70.0109 577.686 69.3974C579.52 68.784 580.91 67.9335 581.857 66.8461C582.805 65.7586 583.294 64.5178 583.324 63.1237C583.294 61.8131 582.82 60.6699 581.903 59.694C581.017 58.6902 579.55 57.7979 577.503 57.0172C575.455 56.2086 572.69 55.4557 569.206 54.7586L559.855 52.9183C551.543 51.2732 544.988 48.5267 540.19 44.6788C535.423 40.803 533.055 35.5191 533.086 28.8271C533.055 23.3898 534.644 18.6357 537.853 14.5647C541.092 10.4659 545.569 7.27322 551.283 4.98679C557.028 2.70035 563.614 1.55713 571.039 1.55713C578.618 1.55713 585.173 2.71429 590.704 5.02861C596.235 7.34293 600.498 10.6053 603.493 14.8157C606.518 18.9982 608.046 23.8917 608.077 29.4963H583.691Z" stroke="#FC8431" style="stroke:#FC8431;stroke:color(display-p3 0.9882 0.5176 0.1922);stroke-opacity:1;" stroke-width="1.74212" mask="url(#path-1-outside-1_86_493)"/>
<path d="M616.488 21.4659V2.72823H698.08V21.4659H669.843V88.386H644.724V21.4659H616.488Z" stroke="#FC8431" style="stroke:#FC8431;stroke:color(display-p3 0.9882 0.5176 0.1922);stroke-opacity:1;" stroke-width="1.74212" mask="url(#path-1-outside-1_86_493)"/>
<path d="M763.227 2.72823H788.713V57.6027C788.713 64.1275 787.002 69.7739 783.579 74.5419C780.187 79.2821 775.451 82.9488 769.369 85.5419C763.288 88.1072 756.229 89.3898 748.192 89.3898C740.094 89.3898 733.005 88.1072 726.923 85.5419C720.842 82.9488 716.106 79.2821 712.714 74.5419C709.352 69.7739 707.671 64.1275 707.671 57.6027V2.72823H733.157V55.5951C733.157 58.2441 733.799 60.6142 735.083 62.7054C736.366 64.7688 738.138 66.386 740.4 67.5571C742.692 68.7282 745.289 69.3138 748.192 69.3138C751.126 69.3138 753.723 68.7282 755.985 67.5571C758.246 66.386 760.018 64.7688 761.302 62.7054C762.585 60.6142 763.227 58.2441 763.227 55.5951V2.72823Z" stroke="#FC8431" style="stroke:#FC8431;stroke:color(display-p3 0.9882 0.5176 0.1922);stroke-opacity:1;" stroke-width="1.74212" mask="url(#path-1-outside-1_86_493)"/>
<path d="M836.946 88.386H800.826V2.72823H836.58C846.236 2.72823 854.579 4.44306 861.607 7.87272C868.666 11.2745 874.106 16.182 877.925 22.5952C881.776 28.9804 883.701 36.6344 883.701 45.5571C883.701 54.4798 881.791 62.1477 877.971 68.5609C874.151 74.9462 868.743 79.8537 861.745 83.2834C854.747 86.6851 846.481 88.386 836.946 88.386ZM826.312 68.6446H836.03C840.674 68.6446 844.632 67.9614 847.902 66.5951C851.202 65.2289 853.708 62.8727 855.419 59.5267C857.161 56.1807 858.032 51.5242 858.032 45.5571C858.032 39.5901 857.146 34.9336 855.373 31.5875C853.631 28.2415 851.064 25.8854 847.672 24.5191C844.311 23.1528 840.185 22.4697 835.296 22.4697H826.312V68.6446Z" stroke="#FC8431" style="stroke:#FC8431;stroke:color(display-p3 0.9882 0.5176 0.1922);stroke-opacity:1;" stroke-width="1.74212" mask="url(#path-1-outside-1_86_493)"/>
<path d="M920.979 2.72823V88.386H895.493V2.72823H920.979Z" stroke="#FC8431" style="stroke:#FC8431;stroke:color(display-p3 0.9882 0.5176 0.1922);stroke-opacity:1;" stroke-width="1.74212" mask="url(#path-1-outside-1_86_493)"/>
<path d="M1024 45.5571C1024 55.0932 1021.97 63.1376 1017.9 69.6902C1013.84 76.2149 1008.35 81.1642 1001.45 84.5381C994.541 87.8841 986.841 89.5571 978.345 89.5571C969.789 89.5571 962.058 87.8702 955.151 84.4963C948.276 81.0945 942.805 76.1313 938.741 69.6065C934.707 63.0539 932.691 55.0375 932.691 45.5571C932.691 36.021 934.707 27.9906 938.741 21.4659C942.805 14.9133 948.276 9.96397 955.151 6.61796C962.058 3.24407 969.789 1.55713 978.345 1.55713C986.841 1.55713 994.541 3.24407 1001.45 6.61796C1008.35 9.96397 1013.84 14.9133 1017.9 21.4659C1021.97 27.9906 1024 36.021 1024 45.5571ZM997.781 45.5571C997.781 40.4266 997.032 36.1047 995.535 32.5913C994.068 29.0502 991.883 26.3733 988.98 24.5609C986.107 22.7206 982.562 21.8005 978.345 21.8005C974.128 21.8005 970.568 22.7206 967.665 24.5609C964.792 26.3733 962.608 29.0502 961.11 32.5913C959.643 36.1047 958.91 40.4266 958.91 45.5571C958.91 50.6877 959.643 55.0235 961.11 58.5647C962.608 62.078 964.792 64.7548 967.665 66.5951C970.568 68.4076 974.128 69.3138 978.345 69.3138C982.562 69.3138 986.107 68.4076 988.98 66.5951C991.883 64.7548 994.068 62.078 995.535 58.5647C997.032 55.0235 997.781 50.6877 997.781 45.5571Z" stroke="#FC8431" style="stroke:#FC8431;stroke:color(display-p3 0.9882 0.5176 0.1922);stroke-opacity:1;" stroke-width="1.74212" mask="url(#path-1-outside-1_86_493)"/>
</mask>
<g mask="url(#mask0_86_493)">
<path d="M-104.424 -84.4448L1141.84 -2.47948M-103.946 -88.9975L1142.31 -7.03218M-103.467 -93.5502L1142.79 -11.5849M-102.989 -98.1029L1143.27 -16.1376M-102.51 -102.656L1143.75 -20.6903M-102.032 -107.208L1144.23 -25.243M-101.553 -111.761L1144.71 -29.7957M-101.075 -116.314L1145.19 -34.3484M-100.596 -120.866L1145.66 -38.9011M-100.118 -125.419L1146.14 -43.4538M-99.6391 -129.972L1146.62 -48.0065M-99.1605 -134.524L1147.1 -52.5592M-98.682 -139.077L1147.58 -57.1119M-98.2035 -143.63L1148.06 -61.6646M-97.725 -148.183L1148.53 -66.2173M-104.903 -79.892L1141.36 2.07322M-105.381 -75.3393L1140.88 6.62593M-105.86 -70.7866L1140.4 11.1786M-106.338 -66.2339L1139.92 15.7313M-106.817 -61.6812L1139.44 20.284M-107.295 -57.1285L1138.96 24.8367M-107.774 -52.5758L1138.49 29.3894M-108.252 -48.0231L1138.01 33.9421M-108.731 -43.4704L1137.53 38.4948M-109.209 -38.9178L1137.05 43.0475M-109.688 -34.365L1136.57 47.6002M-110.166 -29.8124L1136.09 52.1529M-110.645 -25.2597L1135.61 56.7056M-111.123 -20.7069L1135.14 61.2583M-111.602 -16.1542L1134.66 65.8111M-112.08 -11.6015L1134.18 70.3637M-112.559 -7.04889L1133.7 74.9164M-113.037 -2.49611L1133.22 79.4692M-113.516 2.0565L1132.74 84.0218M-113.994 6.60928L1132.27 88.5746M-114.473 11.1619L1131.79 93.1272M-114.951 15.7146L1131.31 97.6799M-115.43 20.2673L1130.83 102.233M-115.908 24.8201L1130.35 106.785M-116.387 29.3728L1129.87 111.338M-116.865 33.9254L1129.39 115.891M-117.344 38.4782L1128.92 120.443M-117.822 43.0308L1128.44 124.996M-118.301 47.5836L1127.96 129.549M-118.779 52.1362L1127.48 134.101M-119.258 56.689L1127 138.654M-119.736 61.2416L1126.52 143.207M-120.215 65.7944L1126.04 147.76M-120.693 70.3471L1125.57 152.312M-121.172 74.8997L1125.09 156.865M-121.65 79.4524L1124.61 161.418M-122.129 84.0052L1124.13 165.97M-122.607 88.5578L1123.65 170.523M-123.086 93.1106L1123.17 175.076M-123.564 97.6633L1122.7 179.629M-124.043 102.216L1122.22 184.181" stroke="#FC8431" style="stroke:#FC8431;stroke:color(display-p3 0.9882 0.5176 0.1922);stroke-opacity:1;" stroke-width="0.953125"/>
</g>
</svg>
